<?xml version="1.0" encoding="UTF-8" standalone="no"?>
<!-- Created with Inkscape (http://www.inkscape.org/) -->

<svg
   width="300"
   height="300"
   viewBox="0 0 300 300"
   version="1.1"
   id="SVGRoot"
   sodipodi:docname="playPause.svg"
   inkscape:export-filename="../Programs/OtoDekcs/assets/playPause.png"
   inkscape:export-xdpi="96"
   inkscape:export-ydpi="96"
   inkscape:version="1.2.2 (b0a8486, 2022-12-01)"
   xml:space="preserve"
   xmlns:inkscape="http://www.inkscape.org/namespaces/inkscape"
   xmlns:sodipodi="http://sodipodi.sourceforge.net/DTD/sodipodi-0.dtd"
   xmlns:xlink="http://www.w3.org/1999/xlink"
   xmlns="http://www.w3.org/2000/svg"
   xmlns:svg="http://www.w3.org/2000/svg"><sodipodi:namedview
     id="namedview515"
     pagecolor="#ffffff"
     bordercolor="#000000"
     borderopacity="0.25"
     inkscape:showpageshadow="2"
     inkscape:pageopacity="0.0"
     inkscape:pagecheckerboard="0"
     inkscape:deskcolor="#d1d1d1"
     inkscape:document-units="px"
     showgrid="false"
     inkscape:zoom="0.84045834"
     inkscape:cx="593.72366"
     inkscape:cy="293.29235"
     inkscape:window-width="1280"
     inkscape:window-height="747"
     inkscape:window-x="0"
     inkscape:window-y="25"
     inkscape:window-maximized="0"
     inkscape:current-layer="g5803"
     showguides="false"><inkscape:grid
       type="xygrid"
       id="grid521"
       originx="-310"
       originy="0" /><inkscape:page
       x="0"
       y="0"
       width="300"
       height="300"
       id="page4410" /><inkscape:page
       x="310"
       y="0"
       width="300"
       height="300"
       id="page4412"
       inkscape:export-filename="../Programs/OtoDekcs/Assets/cue.png"
       inkscape:export-xdpi="96"
       inkscape:export-ydpi="96" /><inkscape:page
       x="620"
       y="0"
       width="300"
       height="300"
       id="page5799"
       inkscape:export-filename="../Programs/OtoDekcs/Assets/load.png"
       inkscape:export-xdpi="96"
       inkscape:export-ydpi="96" /><inkscape:page
       x="930"
       y="0"
       width="90"
       height="160"
       id="page7608"
       inkscape:export-filename="../Programs/OtoDekcs/Assets/volFader.png"
       inkscape:export-xdpi="96"
       inkscape:export-ydpi="96" /><inkscape:page
       x="1030"
       y="0"
       width="160"
       height="90"
       id="page7732"
       inkscape:export-filename="../Programs/OtoDekcs/Assets/crossfader.png"
       inkscape:export-xdpi="96"
       inkscape:export-ydpi="96" /><inkscape:page
       x="1200"
       y="0"
       width="90"
       height="160"
       id="page10238"
       inkscape:export-filename="../Programs/OtoDekcs/Assets/speedFader.png"
       inkscape:export-xdpi="96"
       inkscape:export-ydpi="96" /></sodipodi:namedview><defs
     id="defs510"><inkscape:path-effect
       effect="fillet_chamfer"
       id="path-effect10255"
       is_visible="true"
       lpeversion="1"
       nodesatellites_param="F,0,0,1,0,5,0,1 @ F,0,0,1,0,5,0,1 @ F,0,0,1,0,5,0,1 @ F,0,0,1,0,5,0,1"
       unit="px"
       method="auto"
       mode="F"
       radius="5"
       chamfer_steps="1"
       flexible="false"
       use_knot_distance="true"
       apply_no_radius="true"
       apply_with_radius="true"
       only_selected="false"
       hide_knots="false" /><inkscape:path-effect
       effect="fillet_chamfer"
       id="path-effect10251"
       is_visible="true"
       lpeversion="1"
       nodesatellites_param="F,0,0,1,0,28,0,11 @ F,0,0,1,0,28,0,11 @ F,0,0,1,0,28,0,11 @ F,0,0,1,0,28,0,11"
       unit="px"
       method="auto"
       mode="F"
       radius="28"
       chamfer_steps="11"
       flexible="false"
       use_knot_distance="true"
       apply_no_radius="true"
       apply_with_radius="true"
       only_selected="false"
       hide_knots="false" /><inkscape:path-effect
       effect="fillet_chamfer"
       id="path-effect10215"
       is_visible="true"
       lpeversion="1"
       nodesatellites_param="F,0,0,1,0,5,0,1 @ F,0,0,1,0,5,0,1 @ F,0,0,1,0,5,0,1 @ F,0,0,1,0,5,0,1"
       unit="px"
       method="auto"
       mode="F"
       radius="5"
       chamfer_steps="1"
       flexible="false"
       use_knot_distance="true"
       apply_no_radius="true"
       apply_with_radius="true"
       only_selected="false"
       hide_knots="false" /><inkscape:path-effect
       effect="fillet_chamfer"
       id="path-effect10211"
       is_visible="true"
       lpeversion="1"
       nodesatellites_param="F,0,0,1,0,28,0,11 @ F,0,0,1,0,28,0,11 @ F,0,0,1,0,28,0,11 @ F,0,0,1,0,28,0,11"
       unit="px"
       method="auto"
       mode="F"
       radius="28"
       chamfer_steps="11"
       flexible="false"
       use_knot_distance="true"
       apply_no_radius="true"
       apply_with_radius="true"
       only_selected="false"
       hide_knots="false" /><linearGradient
       inkscape:collect="always"
       id="linearGradient8685"><stop
         style="stop-color:#1a1a1a;stop-opacity:0.82934129;"
         offset="0"
         id="stop8681" /><stop
         style="stop-color:#1a1a1a;stop-opacity:1;"
         offset="1"
         id="stop8683" /></linearGradient><inkscape:path-effect
       effect="fillet_chamfer"
       id="path-effect7746"
       is_visible="true"
       lpeversion="1"
       nodesatellites_param="F,0,0,1,0,5,0,1 @ F,0,0,1,0,5,0,1 @ F,0,0,1,0,5,0,1 @ F,0,0,1,0,5,0,1"
       unit="px"
       method="auto"
       mode="F"
       radius="5"
       chamfer_steps="1"
       flexible="false"
       use_knot_distance="true"
       apply_no_radius="true"
       apply_with_radius="true"
       only_selected="false"
       hide_knots="false" /><inkscape:path-effect
       effect="fillet_chamfer"
       id="path-effect7742"
       is_visible="true"
       lpeversion="1"
       nodesatellites_param="F,0,0,1,0,28,0,11 @ F,0,0,1,0,28,0,11 @ F,0,0,1,0,28,0,11 @ F,0,0,1,0,28,0,11"
       unit="px"
       method="auto"
       mode="F"
       radius="28"
       chamfer_steps="11"
       flexible="false"
       use_knot_distance="true"
       apply_no_radius="true"
       apply_with_radius="true"
       only_selected="false"
       hide_knots="false" /><inkscape:path-effect
       effect="fillet_chamfer"
       id="path-effect7720"
       is_visible="true"
       lpeversion="1"
       nodesatellites_param="F,0,0,1,0,5,0,1 @ F,0,0,1,0,5,0,1 @ F,0,0,1,0,5,0,1 @ F,0,0,1,0,5,0,1"
       unit="px"
       method="auto"
       mode="F"
       radius="5"
       chamfer_steps="1"
       flexible="false"
       use_knot_distance="true"
       apply_no_radius="true"
       apply_with_radius="true"
       only_selected="false"
       hide_knots="false" /><inkscape:path-effect
       effect="fillet_chamfer"
       id="path-effect7664"
       is_visible="true"
       lpeversion="1"
       nodesatellites_param="F,0,0,1,0,28,0,11 @ F,0,0,1,0,28,0,11 @ F,0,0,1,0,28,0,11 @ F,0,0,1,0,28,0,11"
       unit="px"
       method="auto"
       mode="F"
       radius="28"
       chamfer_steps="11"
       flexible="false"
       use_knot_distance="true"
       apply_no_radius="true"
       apply_with_radius="true"
       only_selected="false"
       hide_knots="false" /><inkscape:path-effect
       effect="fillet_chamfer"
       id="path-effect5974"
       is_visible="true"
       lpeversion="1"
       nodesatellites_param="F,0,0,1,0,71,0,20 @ F,0,0,1,0,71,0,20 @ F,0,0,1,0,71,0,20 @ F,0,0,1,0,71,0,20"
       unit="px"
       method="auto"
       mode="F"
       radius="71"
       chamfer_steps="20"
       flexible="false"
       use_knot_distance="true"
       apply_no_radius="true"
       apply_with_radius="true"
       only_selected="false"
       hide_knots="false" /><inkscape:path-effect
       effect="bounding_box"
       id="path-effect5972"
       is_visible="true"
       lpeversion="1"
       linkedpath=""
       visualbounds="false" /><inkscape:path-effect
       effect="bspline"
       id="path-effect5821"
       is_visible="true"
       lpeversion="1"
       weight="4"
       steps="2"
       helper_size="0"
       apply_no_weight="true"
       apply_with_weight="true"
       only_selected="false" /><inkscape:path-effect
       effect="bspline"
       id="path-effect4444"
       is_visible="true"
       lpeversion="1"
       weight="4"
       steps="2"
       helper_size="0"
       apply_no_weight="true"
       apply_with_weight="true"
       only_selected="false" /><inkscape:path-effect
       effect="bspline"
       id="path-effect4341"
       is_visible="true"
       lpeversion="1"
       weight="4"
       steps="2"
       helper_size="0"
       apply_no_weight="true"
       apply_with_weight="true"
       only_selected="false" /><radialGradient
       inkscape:collect="always"
       xlink:href="#linearGradient8685"
       id="radialGradient8689"
       cx="975"
       cy="80"
       fx="975"
       fy="80"
       r="44.99995"
       gradientTransform="matrix(1,0,0,1.7777797,0,-62.222379)"
       gradientUnits="userSpaceOnUse" /><radialGradient
       inkscape:collect="always"
       xlink:href="#linearGradient8685"
       id="radialGradient10220"
       gradientUnits="userSpaceOnUse"
       gradientTransform="matrix(1,0,0,1.7777797,0,-62.222379)"
       cx="975"
       cy="80"
       fx="975"
       fy="80"
       r="44.99995" /><radialGradient
       inkscape:collect="always"
       xlink:href="#linearGradient8685"
       id="radialGradient10257"
       gradientUnits="userSpaceOnUse"
       gradientTransform="matrix(1,0,0,1.7777797,0,-62.222379)"
       cx="975"
       cy="80"
       fx="975"
       fy="80"
       r="44.99995" /></defs><g
     id="g6937"
     inkscape:label="Load Icon"
     sodipodi:insensitive="true"><path
       style="opacity:1;fill:#333333;fill-opacity:1;stroke:#00ffff;stroke-width:10.3492;stroke-dasharray:none;stroke-opacity:1"
       id="rect5941"
       width="270.056"
       height="269.8573"
       x="634.97198"
       y="15.07135"
       inkscape:path-effect="#path-effect5974"
       d="m 705.97198,15.07135 h 128.056 a 71,71 45 0 1 71,71 v 127.8573 a 71,71 135 0 1 -71,71 h -128.056 a 71,71 45 0 1 -71,-71 V 86.07135 a 71,71 135 0 1 71,-71 z"
       inkscape:label="background"
       sodipodi:type="rect" /><path
       style="fill:#00ffff;stroke-width:0.31309"
       d="m 757.27048,211.06843 c -0.60127,-0.0498 -2.50767,-0.29231 -4.23646,-0.5387 -1.72878,-0.24639 -3.37605,-0.53646 -3.66058,-0.64465 -0.28453,-0.10817 -0.9572,-0.60215 -1.49483,-1.0977 -0.64644,-0.59588 -1.1283,-1.30415 -1.42285,-2.09136 -0.24495,-0.65468 -0.43987,-1.55561 -0.43314,-2.00203 0.009,-0.44645 0.18508,-1.23761 0.39635,-1.75816 0.21126,-0.52055 0.64593,-1.27457 0.96591,-1.67558 0.31998,-0.40103 1.12805,-0.99638 1.79567,-1.32304 1.08602,-0.53135 1.38024,-0.58113 2.79345,-0.47264 0.86875,0.0667 2.46506,0.23844 3.54733,0.38164 1.08229,0.14322 3.83719,0.26129 6.122,0.26243 2.924,0.003 4.96355,-0.1179 6.88722,-0.40297 1.50318,-0.22276 3.32337,-0.4007 4.04488,-0.39541 0.89313,0.01 1.59577,0.15692 2.20134,0.47117 0.48922,0.25386 1.2462,0.85639 1.68214,1.33896 0.45881,0.50784 0.93599,1.35998 1.13296,2.02329 0.18717,0.63026 0.34031,1.30698 0.34031,1.50384 0,0.19686 -0.14726,0.85378 -0.32725,1.45983 -0.17997,0.60604 -0.62776,1.48007 -0.99506,1.94228 -0.36732,0.4622 -1.04738,1.06669 -1.51129,1.34332 -0.61586,0.36726 -1.80735,0.65417 -4.41632,1.06341 -2.73007,0.42824 -4.6044,0.57724 -7.94572,0.63162 -2.40507,0.0391 -4.86479,0.0301 -5.46606,-0.0196 z m -28.23199,-9.47669 c -0.49595,-0.22065 -1.91307,-1.12381 -3.14917,-2.007 -1.2361,-0.8832 -3.09328,-2.33579 -4.12706,-3.228 -1.03378,-0.89218 -2.72981,-2.48221 -3.76893,-3.53338 -1.03913,-1.05118 -2.76095,-2.99048 -3.82625,-4.30956 -1.0653,-1.31909 -2.33046,-2.94915 -2.81147,-3.62237 -0.48102,-0.67323 -0.992,-1.54596 -1.13554,-1.93938 -0.14352,-0.39345 -0.26435,-1.3057 -0.2685,-2.02721 -0.007,-0.81838 0.14273,-1.64266 0.39195,-2.19127 0.21972,-0.48369 0.73193,-1.21186 1.13822,-1.61816 0.40629,-0.40629 1.13446,-0.9185 1.61814,-1.13821 0.54703,-0.24849 1.39864,-0.40132 2.25319,-0.40429 1.03758,-0.005 1.63697,0.12854 2.44903,0.54006 0.59139,0.29966 1.32265,0.8654 1.62506,1.25718 0.30241,0.39178 1.31572,1.74331 2.2518,3.00338 0.93609,1.26008 2.93184,3.53144 4.43499,5.04747 1.73807,1.75291 3.728,3.47592 5.46606,4.73282 1.50316,1.08704 3.10065,2.33793 3.54996,2.77972 0.55311,0.54392 0.93076,1.19495 1.16951,2.01624 0.23971,0.82453 0.30401,1.53711 0.20082,2.22524 -0.0835,0.55676 -0.33059,1.35896 -0.54911,1.78266 -0.2185,0.42371 -0.72569,1.08459 -1.12703,1.4686 -0.40137,0.38401 -1.17251,0.8984 -1.71365,1.14307 -0.5869,0.26537 -1.42501,0.44056 -2.0771,0.43422 -0.60125,-0.009 -1.49898,-0.19118 -1.99492,-0.41183 z m 62.99611,0.0669 c -0.2405,-0.0552 -0.76991,-0.20439 -1.17646,-0.33132 -0.40653,-0.12694 -1.12623,-0.58049 -1.5993,-1.00787 -0.47307,-0.42741 -1.00392,-1.05512 -1.17964,-1.39493 -0.17573,-0.3398 -0.41158,-1.10342 -0.52415,-1.6969 -0.15224,-0.80283 -0.12172,-1.39736 0.11923,-2.32242 0.17811,-0.68384 0.51981,-1.51855 0.7593,-1.8549 0.2395,-0.33633 1.19691,-1.17872 2.12756,-1.87197 0.93065,-0.69322 2.27958,-1.75883 2.99758,-2.36797 0.71801,-0.60915 2.09546,-1.83106 3.06098,-2.71536 0.96555,-0.88427 2.01605,-1.74252 2.33446,-1.90719 0.31843,-0.16466 1.04912,-0.40475 1.62376,-0.53352 0.87732,-0.19663 1.27523,-0.16416 2.48237,0.20249 1.0414,0.31632 1.66011,0.66539 2.24518,1.26678 0.44421,0.45655 1.00762,1.27287 1.25207,1.814 0.25422,0.56275 0.4456,1.45185 0.44711,2.0771 0.003,0.69149 -0.18493,1.49608 -0.50783,2.18952 -0.28081,0.60297 -0.84558,1.44005 -1.25507,1.86016 -0.40949,0.42011 -1.53166,1.49346 -2.49369,2.38522 -0.96202,0.89175 -2.91474,2.49248 -4.33937,3.55718 -1.42465,1.06467 -2.90212,2.06609 -3.28328,2.22534 -0.38116,0.15926 -1.13412,0.34301 -1.67326,0.40832 -0.53916,0.0655 -1.17705,0.0734 -1.41755,0.0182 z m -86.30834,-34.8442 c -0.45058,-0.11193 -1.2051,-0.45887 -1.67674,-0.77099 -0.47164,-0.31212 -1.10422,-0.92866 -1.40574,-1.37008 -0.30152,-0.44141 -0.69961,-1.34372 -0.88471,-2.00511 -0.18508,-0.66141 -0.48595,-2.38322 -0.66856,-3.82625 -0.18264,-1.44303 -0.42844,-3.91124 -0.54626,-5.48493 -0.13458,-1.79775 -0.13986,-3.96976 -0.0142,-5.84376 0.11002,-1.64042 0.35747,-4.23923 0.54987,-5.77518 0.19243,-1.53592 0.50087,-3.33372 0.68543,-3.9951 0.26194,-0.9386 0.58607,-1.44644 1.4768,-2.31376 0.82032,-0.79874 1.42634,-1.18302 2.15511,-1.36652 0.55763,-0.14042 1.27111,-0.25529 1.58548,-0.25529 0.31439,0 1.00793,0.10987 1.5412,0.24414 0.57367,0.14446 1.37578,0.6017 1.96442,1.11985 0.54716,0.48161 1.17572,1.23267 1.39678,1.66897 0.22108,0.43628 0.46829,1.19199 0.54938,1.67932 0.0889,0.5343 0.0134,1.52923 -0.19038,2.50629 -0.18581,0.89112 -0.45089,2.70007 -0.58908,4.01983 -0.15646,1.49436 -0.20107,4.01315 -0.11822,6.6767 0.0772,2.4817 0.27948,5.01132 0.48193,6.02622 0.1919,0.96204 0.40422,2.45488 0.4718,3.31744 0.10485,1.33801 0.0506,1.71756 -0.36926,2.58493 -0.27066,0.55916 -0.83122,1.34595 -1.24563,1.74843 -0.4144,0.40245 -1.06747,0.88074 -1.45124,1.06287 -0.38379,0.18211 -1.18856,0.38162 -1.78838,0.4433 -0.59981,0.0617 -1.45925,0.0206 -1.90981,-0.0913 z m 109.48441,-3.08339 c -0.52214,-0.26772 -4.59926,-4.16246 -10.11775,-9.66527 l -9.24324,-9.21688 -0.44086,-1.41921 c -0.38332,-1.23392 -0.40731,-1.5622 -0.18374,-2.51438 0.14142,-0.60236 0.38823,-1.35448 0.54843,-1.6714 0.16022,-0.31693 0.74987,-0.9799 1.31037,-1.47325 0.56048,-0.49335 1.37549,-0.99601 1.81113,-1.11703 0.43564,-0.121 1.284,-0.2184 1.88528,-0.21644 0.62604,0.003 1.51342,0.19419 2.07656,0.44961 0.67106,0.30438 2.17966,1.63529 4.75042,4.19088 2.07191,2.05966 3.81436,3.6976 3.87211,3.63984 0.0578,-0.0579 -0.0333,-1.08491 -0.20259,-2.28256 -0.16921,-1.19765 -0.51434,-3.06305 -0.76695,-4.14533 -0.25262,-1.08228 -0.6637,-2.60731 -0.9135,-3.38894 -0.24978,-0.78166 -0.79454,-2.30668 -1.21056,-3.38897 -0.41602,-1.08227 -1.29769,-3.05007 -1.95926,-4.37284 -0.66158,-1.32278 -1.9152,-3.48735 -2.78587,-4.81014 -0.87066,-1.32278 -2.21478,-3.19 -2.98694,-4.1494 -0.77215,-0.95937 -2.37456,-2.71298 -3.56091,-3.8969 -1.18632,-1.1839 -3.0558,-2.85867 -4.15433,-3.72171 -1.09856,-0.86304 -2.44006,-1.87508 -2.98112,-2.24894 -0.54106,-0.37389 -1.72167,-1.11922 -2.62355,-1.65629 -0.90191,-0.53708 -2.14246,-1.23334 -2.75677,-1.54724 -0.61434,-0.31391 -2.13935,-1.00418 -3.38897,-1.53394 -1.2496,-0.52976 -3.05911,-1.22058 -4.02114,-1.53516 -0.96202,-0.31457 -2.63463,-0.78136 -3.71691,-1.03731 -1.08229,-0.25595 -2.7549,-0.6069 -3.7169,-0.7799 -0.96206,-0.173 -3.7693,-0.374803 -6.23835,-0.448456 -2.90615,-0.0867 -5.41195,-0.04066 -7.10588,0.130554 -1.43918,0.145452 -3.74815,0.511272 -5.13106,0.812922 -1.38292,0.30164 -3.40636,0.82941 -4.49656,1.1728 -1.09018,0.3434 -2.75966,0.93322 -3.70995,1.31072 -0.95029,0.37749 -2.61643,1.13189 -3.70255,1.67642 -1.0861,0.54454 -2.41747,1.24602 -2.95862,1.55886 -0.54114,0.31284 -1.771,1.10302 -2.73302,1.75597 -0.96204,0.65295 -2.43787,1.73695 -3.27965,2.4089 -0.84177,0.67195 -2.45168,2.10983 -3.57758,3.19529 -1.12591,1.08544 -2.76149,2.86115 -3.63462,3.946 -0.87316,1.08486 -2.05873,2.65906 -2.63464,3.49828 -0.57589,0.83921 -1.35083,1.85763 -1.72209,2.26319 -0.37127,0.40555 -1.16698,0.97032 -1.76825,1.25504 -0.69278,0.3281 -1.49361,0.51843 -2.1864,0.51967 -0.75402,0.002 -1.50027,-0.19195 -2.40508,-0.62299 -0.72151,-0.34372 -1.47731,-0.81129 -1.67954,-1.03907 -0.20223,-0.22779 -0.61942,-0.95498 -0.92708,-1.61597 -0.32071,-0.689 -0.56033,-1.59734 -0.56156,-2.12871 -0.002,-0.50979 0.17848,-1.4022 0.39921,-1.98313 0.22074,-0.58091 0.82532,-1.63966 1.34352,-2.35275 0.51821,-0.71308 1.34342,-1.83765 1.8338,-2.49905 0.49039,-0.66138 1.8536,-2.29814 3.02937,-3.63724 1.17578,-1.33908 2.76053,-3.01726 3.52168,-3.72929 0.76117,-0.71201 2.21237,-1.98574 3.22491,-2.83048 1.01257,-0.84475 2.67733,-2.12413 3.69948,-2.843056 1.02216,-0.718936 2.6114,-1.763823 3.53167,-2.321973 0.92027,-0.558151 2.64207,-1.517912 3.82625,-2.132801 1.18415,-0.614888 2.59577,-1.298557 3.13691,-1.519264 0.54113,-0.220709 1.77099,-0.713969 2.73303,-1.096138 0.962,-0.382171 2.63464,-0.975111 3.71692,-1.31765 1.08227,-0.342537 3.00935,-0.874806 4.28239,-1.182819 1.27302,-0.308011 3.73275,-0.780082 5.46605,-1.049048 2.63698,-0.40919 4.04379,-0.489024 8.61751,-0.489024 4.57372,0 5.98051,0.07983 8.6175,0.489024 1.7333,0.268966 4.19302,0.741037 5.46605,1.049048 1.27303,0.308013 3.20011,0.84137 4.28239,1.185236 1.08228,0.343866 2.60732,0.868944 3.38897,1.166839 0.78164,0.297897 2.45426,1.008242 3.7169,1.578548 1.26268,0.57031 3.18126,1.530166 4.26355,2.133013 1.08226,0.602849 3.09924,1.8616 4.48214,2.79723 1.38291,0.935625 3.20311,2.253145 4.04489,2.927825 0.84179,0.67467 2.50645,2.12944 3.69929,3.23279 1.19284,1.10337 3.02536,3.00392 4.07224,4.22345 1.04691,1.21953 2.33328,2.7955 2.85863,3.50214 0.52537,0.70665 1.45992,2.03507 2.07683,2.95208 0.61689,0.91697 1.68533,2.67162 2.37431,3.8992 0.68899,1.22759 1.6443,3.07954 2.12291,4.11547 0.47859,1.03593 1.11734,2.52812 1.41946,3.31599 0.30213,0.78785 0.82719,2.26878 1.16681,3.29094 0.33963,1.02216 0.8665,2.79315 1.17084,3.93555 0.30431,1.14241 0.80415,3.56633 1.11073,5.38648 0.30659,1.82015 0.55742,3.66496 0.55742,4.09955 0,0.49854 0.10087,0.78175 0.27331,0.76736 0.15031,-0.0125 1.84753,-1.6821 3.77158,-3.71011 1.92405,-2.02801 3.81056,-3.93563 4.19225,-4.23916 0.38169,-0.30353 1.26717,-0.70161 1.96777,-0.8846 1.0075,-0.26318 1.50951,-0.28401 2.40118,-0.0996 0.62004,0.1282 1.55472,0.51846 2.07709,0.86724 0.52238,0.34877 1.22022,1.06721 1.55079,1.59651 0.33059,0.52929 0.66268,1.41186 0.73798,1.96126 0.0752,0.54942 0.0705,1.44183 -0.0107,1.98318 -0.0812,0.54135 -0.41327,1.37803 -0.73795,1.8593 -0.32472,0.48125 -1.57428,1.89561 -2.77681,3.14299 -1.20253,1.24737 -4.36115,4.52611 -7.01913,7.28608 -2.658,2.75995 -5.54331,5.77552 -6.4118,6.70124 -0.97238,1.03648 -2.00923,1.8975 -2.6987,2.24107 -0.84129,0.41924 -1.44869,0.55556 -2.44323,0.5483 -0.88881,-0.01 -1.61086,-0.15694 -2.19817,-0.45804 z"
       id="path5835"
       inkscape:label="load" /></g><g
     id="g4440"
     inkscape:label="Cue Icon"
     transform="translate(309.99993,-7.0571899e-5)"
     style="display:inline"
     sodipodi:insensitive="true"><g
       inkscape:groupmode="layer"
       id="g4426"
       inkscape:label="Background"
       transform="translate(-310)"
       style="display:inline"><ellipse
         style="display:inline;opacity:1;fill:#333333;stroke:#ffbf00;stroke-width:19.007;stroke-dasharray:none;stroke-opacity:1"
         id="ellipse4424"
         cx="460"
         cy="149.99998"
         rx="140.49643"
         ry="140.49641" /></g><g
       inkscape:groupmode="layer"
       id="layer3"
       inkscape:label="Cue"
       transform="translate(-309.99993,7.0571899e-5)"><text
         xml:space="preserve"
         style="font-style:normal;font-variant:normal;font-weight:100;font-stretch:normal;font-size:74.6667px;font-family:'GB18030 Bitmap';-inkscape-font-specification:'GB18030 Bitmap, Thin';font-variant-ligatures:normal;font-variant-caps:normal;font-variant-numeric:normal;font-variant-east-asian:normal;opacity:1;fill:#ffbf00;fill-opacity:1;stroke:none;stroke-width:19.007;stroke-dasharray:none;stroke-opacity:1"
         x="382.98175"
         y="177.07033"
         id="text5632"><tspan
           id="tspan5630"
           x="382.98175"
           y="177.07033"
           sodipodi:role="line">CUE</tspan></text></g></g><g
     id="g5817"
     inkscape:label="PlayPause Icon"
     sodipodi:insensitive="true"><g
       inkscape:groupmode="layer"
       id="g5803"
       inkscape:label="Background"
       transform="translate(-310)"
       style="display:inline"><ellipse
         style="display:inline;opacity:1;fill:#333333;stroke:#00ff00;stroke-width:19;stroke-dasharray:none;stroke-opacity:1"
         id="ellipse5801"
         cx="460"
         cy="149.99998"
         rx="140.49643"
         ry="140.49641" /></g><g
       id="g5815"
       style="display:inline;fill:#00ff00"
       transform="matrix(0.9,0,0,0.9,-261.49182,15)"
       inkscape:label="PlayPause"><path
         style="fill:#00ff00;stroke-width:10.6552"
         d="m 370.06,102.5 v 95.00001 l 75,-54.15002 z"
         id="path5805"
         inkscape:label="play" /><path
         id="path5807"
         style="fill:#00ff00;stroke-width:10.2994"
         d="m 480.82013,80.400476 c 1.08746,-2.834599 6.13086,-1.327686 5.26268,1.572431 -0.86818,2.900118 -45.81589,134.793203 -46.90196,137.627563 -1.08606,2.83437 -6.12946,1.32745 -5.26267,-1.57243 0.86679,-2.89988 45.81449,-134.792965 46.90195,-137.627564 z"
         inkscape:label="division"
         inkscape:path-effect="#path-effect5821"
         inkscape:original-d="m 481.68712,77.500002 c 0.22028,0.06652 5.26368,1.573432 5.48196,1.63795 -1.95325,5.735482 -46.90096,137.628568 -48.85621,143.362048 -0.21828,-0.0645 -5.26167,-1.57143 -5.48195,-1.63795 1.95525,-5.73348 46.90295,-137.626566 48.8562,-143.362048 z" /><g
         id="g5813"
         inkscape:label="pause"
         style="display:inline;fill:#00ff00;stroke-width:1.23544"
         transform="matrix(1,0,0,0.6551724,-6,52.418905)"><path
           id="path5809"
           style="display:inline;fill:#00ff00;stroke-width:13.1639"
           d="m 508.61872,76.439567 h 14.39571 V 221.43957 h -14.39571 z" /><path
           id="path5811"
           d="m 535.97057,76.439567 h 14.3957 V 221.43957 h -14.3957 z"
           style="fill:#00ff00;stroke-width:13.1639" /></g></g></g><g
     id="g10207"
     inkscape:label="Vol Fader Icon"
     transform="translate(-2.2172928e-5)"
     sodipodi:insensitive="true"
     style="display:inline"><path
       style="opacity:1;fill:url(#radialGradient10220);fill-opacity:1;stroke:#00ff00;stroke-width:3.23665;stroke-linecap:butt;stroke-linejoin:miter;stroke-dasharray:none;stroke-opacity:1"
       id="path10203"
       width="86.763252"
       height="156.76335"
       x="931.61835"
       y="1.618325"
       inkscape:path-effect="#path-effect10211"
       d="m 959.61835,1.618325 h 30.76325 a 28,28 45 0 1 28,28 V 130.38168 a 28,28 135 0 1 -28,28 h -30.76325 a 28,28 45 0 1 -28,-28 V 29.618325 a 28,28 135 0 1 28,-28 z"
       sodipodi:type="rect"
       inkscape:label="background" /><path
       style="opacity:1;fill:#00ff00;fill-opacity:1;stroke:none;stroke-width:3.444;stroke-linecap:butt;stroke-linejoin:miter;stroke-dasharray:none;stroke-opacity:1"
       id="path10205"
       width="18.930031"
       height="44.590744"
       x="965.53497"
       y="57.704628"
       inkscape:path-effect="#path-effect10215"
       d="m 970.53497,57.704628 h 8.93003 a 5,5 45 0 1 5,5 v 34.590744 a 5,5 135 0 1 -5,4.999998 h -8.93003 a 5,5 45 0 1 -5,-4.999998 V 62.704628 a 5,5 135 0 1 5,-5 z"
       sodipodi:type="rect"
       inkscape:label="rect7718"
       sodipodi:insensitive="true" /></g><g
     id="g7724"
     inkscape:label="Crossfader Icon"
     transform="rotate(-90,1024.9999,-5.0000165)"
     sodipodi:insensitive="true"><path
       style="opacity:1;fill:url(#radialGradient8689);fill-opacity:1;stroke:#00ff00;stroke-width:3.23665;stroke-linecap:butt;stroke-linejoin:miter;stroke-dasharray:none;stroke-opacity:1"
       id="rect7662"
       width="86.763252"
       height="156.76335"
       x="931.61835"
       y="1.618325"
       inkscape:path-effect="#path-effect7664"
       d="m 959.61835,1.618325 h 30.76325 a 28,28 45 0 1 28,28 V 130.38168 a 28,28 135 0 1 -28,28 h -30.76325 a 28,28 45 0 1 -28,-28 V 29.618325 a 28,28 135 0 1 28,-28 z"
       sodipodi:type="rect"
       inkscape:label="background" /><path
       style="opacity:1;fill:#00ff00;fill-opacity:1;stroke:none;stroke-width:3.444;stroke-linecap:butt;stroke-linejoin:miter;stroke-dasharray:none;stroke-opacity:1"
       id="rect7718"
       width="18.930031"
       height="44.590744"
       x="965.53497"
       y="57.704628"
       inkscape:path-effect="#path-effect7720"
       d="m 970.53497,57.704628 h 8.93003 a 5,5 45 0 1 5,5 v 34.590744 a 5,5 135 0 1 -5,4.999998 h -8.93003 a 5,5 45 0 1 -5,-4.999998 V 62.704628 a 5,5 135 0 1 5,-5 z"
       sodipodi:type="rect"
       inkscape:label="rect7718"
       sodipodi:insensitive="true" /></g><g
     id="g10247"
     inkscape:label="Speed Fader Icon"
     transform="translate(269.99998)"
     style="display:inline"><path
       style="opacity:1;fill:url(#radialGradient10257);fill-opacity:1;stroke:#00ffff;stroke-width:3.237;stroke-linecap:butt;stroke-linejoin:miter;stroke-dasharray:none;stroke-opacity:1"
       id="path10243"
       width="86.763252"
       height="156.76335"
       x="931.61835"
       y="1.618325"
       inkscape:path-effect="#path-effect10251"
       d="m 959.61835,1.618325 h 30.76325 a 28,28 45 0 1 28,28 V 130.38168 a 28,28 135 0 1 -28,28 h -30.76325 a 28,28 45 0 1 -28,-28 V 29.618325 a 28,28 135 0 1 28,-28 z"
       sodipodi:type="rect"
       inkscape:label="background" /><path
       style="opacity:1;fill:#00ffff;fill-opacity:1;stroke:none;stroke-width:3.444;stroke-linecap:butt;stroke-linejoin:miter;stroke-dasharray:none;stroke-opacity:1"
       id="path10245"
       width="18.930031"
       height="44.590744"
       x="965.53497"
       y="57.704628"
       inkscape:path-effect="#path-effect10255"
       d="m 970.53497,57.704628 h 8.93003 a 5,5 45 0 1 5,5 v 34.590744 a 5,5 135 0 1 -5,4.999998 h -8.93003 a 5,5 45 0 1 -5,-4.999998 V 62.704628 a 5,5 135 0 1 5,-5 z"
       sodipodi:type="rect"
       inkscape:label="rect7718"
       sodipodi:insensitive="true" /></g></svg>
